<svg width="32" height="32" viewBox="0 0 32 32" fill="none" xmlns="http://www.w3.org/2000/svg">
<mask id="mask0_228_2505" style="mask-type:alpha" maskUnits="userSpaceOnUse" x="0" y="0" width="32" height="32">
<rect width="32" height="32" fill="#D9D9D9"/>
</mask>
<g mask="url(#mask0_228_2505)">
<path d="M16.3333 3C8.97333 3 3 8.97333 3 16.3333C3 23.6933 8.97333 29.6667 16.3333 29.6667C23.6933 29.6667 29.6667 23.6933 29.6667 16.3333C29.6667 8.97333 23.6933 3 16.3333 3ZM16.3333 27C10.4533 27 5.66667 22.2133 5.66667 16.3333C5.66667 10.4533 10.4533 5.66667 16.3333 5.66667C22.2133 5.66667 27 10.4533 27 16.3333C27 22.2133 22.2133 27 16.3333 27ZM22.4533 10.44L13.6667 19.2267L10.2133 15.7867L8.33333 17.6667L13.6667 23L24.3333 12.3333L22.4533 10.44Z" fill="white"/>
</g>
</svg>
